<?xml version="1.0" encoding="UTF-8"?>
<svg id="Calque_1" data-name="Calque 1" xmlns="http://www.w3.org/2000/svg" xmlns:xlink="http://www.w3.org/1999/xlink" viewBox="0 0 720 720">
  <defs>
    <style>
      .cls-1 {
        fill: #FAFAFA;
      }
    </style>
  </defs>
  <path class="cls-1" d="m460.85,166.53v269.63c0,32.86-12.16,62.61-31.84,84.14-19.68,21.52-46.86,34.85-76.9,34.85-54.51,0-99.68-43.9-107.54-101.18-.59-4.34-.98-8.74-1.12-13.22l.02-159.36c-1.07-15.44-12.83-27.58-27.22-27.58-15.09,0-27.3,13.38-27.3,29.87v269.79c0,1.01-.82,1.84-1.84,1.84h-77.76c-1.01,0-1.84-.83-1.84-1.84v-269.79c0-32.86,12.18-62.61,31.86-84.14,19.66-21.52,46.85-34.85,76.88-34.85,54.53,0,99.68,43.9,107.54,101.18.59,4.34.98,8.74,1.12,13.22v159.36c1.06,15.44,12.83,27.58,27.2,27.58,15.09,0,27.3-13.36,27.3-29.87V166.53c0-1.01.83-1.84,1.86-1.84h77.74c1.02,0,1.84.83,1.84,1.84Z"/>
  <path class="cls-1" d="m472.69,300.64h23.1c15.43-1.06,27.58-12.84,27.58-27.21,0-15.09-13.37-27.3-29.88-27.3h-20.81c-1.02,0-1.84-.82-1.84-1.84v-77.76c0-1.02.82-1.84,1.84-1.84h20.81c32.86,0,62.6,12.17,84.14,31.85,21.53,19.67,34.85,46.86,34.85,76.89,0,54.52-43.91,99.68-101.18,107.53-4.33.59-8.73.98-13.21,1.12h-25.41c-1.02,0-1.84-.82-1.84-1.84v-77.76c0-1.02.82-1.84,1.84-1.84Z"/>
</svg>