<svg width="24" height="25" viewBox="0 0 24 25" fill="none" xmlns="http://www.w3.org/2000/svg">
    <g clip-path="url(#clip0_155_456)">
        <path d="M16.9501 1.53999H12.7126C11.7376 1.53999 10.9126 2.36499 10.9126 3.33999V5.92749C10.9126 6.37749 11.2876 6.75249 11.7376 6.75249C12.1876 6.75249 12.6001 6.37749 12.6001 5.92749V3.30249C12.6001 3.22749 12.6376 3.18999 12.7126 3.18999H16.9501C17.8501 3.18999 18.5626 3.90249 18.5626 4.80249V20.89C18.5626 21.79 17.8501 22.5025 16.9501 22.5025H12.7126C12.6376 22.5025 12.6001 22.465 12.6001 22.39V19.8025C12.6001 19.3525 12.2251 18.9775 11.7376 18.9775C11.2501 18.9775 10.9126 19.3525 10.9126 19.8025V22.39C10.9126 23.365 11.7376 24.19 12.7126 24.19H16.9501C18.7876 24.19 20.2501 22.69 20.2501 20.89V4.83999C20.2501 3.00249 18.7501 1.53999 16.9501 1.53999Z" fill="#FAFAFA"/>
        <path d="M6.5999 13.69H13.3124C13.7624 13.69 14.1374 13.315 14.1374 12.865C14.1374 12.415 13.7624 12.04 13.3124 12.04H6.6374L8.9624 9.67749C9.2999 9.33999 9.2999 8.81499 8.9624 8.47749C8.6249 8.13999 8.0999 8.13999 7.7624 8.47749L4.0124 12.3025C3.6749 12.64 3.6749 13.165 4.0124 13.5025L7.7624 17.3275C7.9124 17.4775 8.1374 17.59 8.3624 17.59C8.5874 17.59 8.7749 17.515 8.9624 17.365C9.2999 17.0275 9.2999 16.5025 8.9624 16.165L6.5999 13.69Z" fill="#FAFAFA"/>
    </g>
    <defs>
        <clipPath id="clip0_155_456">
            <rect width="24" height="24" fill="white" transform="translate(0 0.864986)"/>
        </clipPath>
    </defs>
</svg>
