<svg width="82" height="59" viewBox="0 0 82 59" fill="none" xmlns="http://www.w3.org/2000/svg">
    <path d="M56.8428 1.14961V41.1689C56.8428 46.0461 54.8866 50.4616 51.7206 53.6572C48.5546 56.8512 44.1821 58.8297 39.3495 58.8297C30.5803 58.8297 23.3137 52.3139 22.0492 43.8123C21.9543 43.1681 21.8916 42.5151 21.8691 41.8501L21.8723 18.1975C21.7001 15.9058 19.8083 14.104 17.4933 14.104C15.0657 14.104 13.1015 16.0899 13.1015 18.5374V58.5804C13.1015 58.7303 12.9696 58.8535 12.8055 58.8535H0.296005C0.133524 58.8535 0 58.7303 0 58.5804V18.5374C0 13.6602 1.95943 9.2446 5.12541 6.04905C8.28817 2.85499 12.6623 0.876514 17.4933 0.876514C26.2657 0.876514 33.5291 7.39228 34.7936 15.8939C34.8885 16.5381 34.9512 17.1912 34.9738 17.8561V41.5088C35.1443 43.8004 37.0377 45.6023 39.3495 45.6023C41.7771 45.6023 43.7413 43.6193 43.7413 41.1689V1.14961C43.7413 0.999705 43.8748 0.876514 44.0405 0.876514H56.5468C56.7109 0.876514 56.8428 0.999705 56.8428 1.14961Z" fill="#FAFAFA"/>
    <path d="M58.7473 21.0546H62.4635C64.9458 20.8973 66.9004 19.1489 66.9004 17.016C66.9004 14.7763 64.7495 12.9641 62.0935 12.9641H58.7457C58.5816 12.9641 58.4497 12.8424 58.4497 12.691V1.14961C58.4497 0.998221 58.5816 0.876514 58.7457 0.876514H62.0935C67.3798 0.876514 72.1641 2.68282 75.6293 5.60378C79.0929 8.52326 81.2357 12.5589 81.2357 17.016C81.2357 25.108 74.1718 31.8108 64.9586 32.9759C64.262 33.0635 63.5542 33.1214 62.8335 33.1422H58.7457C58.5816 33.1422 58.4497 33.0205 58.4497 32.8691V21.3277C58.4497 21.1763 58.5816 21.0546 58.7457 21.0546H58.7473Z" fill="#FAFAFA"/>
</svg>
