<svg width="34" height="34" viewBox="0 0 34 34" fill="none" xmlns="http://www.w3.org/2000/svg">
    <g clip-path="url(#clip0_155_460)">
        <path d="M23.9129 8.76598C24.3291 8.3857 24.4 7.75326 24.0256 7.28439L22.7387 5.67262C21.9431 4.67626 20.5202 4.51679 19.5238 5.31233L5.36962 16.6137C4.37326 17.4093 4.21379 18.8323 5.00933 19.8286L6.31964 21.4697C6.67061 21.9093 7.32645 22.0094 7.78942 21.6878C8.68015 21.1205 9.85711 21.3325 10.5357 22.1823C11.2142 23.0322 11.1604 24.2268 10.3866 24.9406C9.97046 25.3209 9.92298 25.9826 10.274 26.4222L11.5609 28.034C12.3564 29.0303 13.7794 29.1898 14.7758 28.3942L28.9299 17.0928C29.9263 16.2973 30.0858 14.8743 29.2902 13.8779L28.0033 12.2662C27.6523 11.8266 26.9965 11.7264 26.5335 12.0481C25.6428 12.6153 24.4659 12.4034 23.7873 11.5536C23.0854 10.6744 23.1392 9.47974 23.9129 8.76598ZM26.9888 13.7001L27.9715 14.9309C28.1821 15.1946 28.1408 15.5635 27.877 15.7741L20.6974 21.5067L19.4338 19.9243C19.1531 19.5726 18.6026 19.4842 18.2217 19.7884C17.8407 20.0926 17.7816 20.6196 18.0858 21.0006L19.3493 22.583L13.7228 27.0755C13.4591 27.2861 13.0902 27.2448 12.8796 26.981L11.9436 25.8088C12.9991 24.4863 13.0009 22.5653 11.8778 21.1587C10.778 19.7814 8.88096 19.3286 7.33417 20.0358L6.32804 18.7757C6.11746 18.512 6.1588 18.143 6.42255 17.9325L12.0784 13.4166L13.3419 14.999C13.6226 15.3507 14.1731 15.4391 14.554 15.1349C14.935 14.8307 14.9941 14.3037 14.6899 13.9227L13.4264 12.3402L20.5767 6.63105C20.8405 6.42046 21.2094 6.46181 21.42 6.72555L22.3793 7.92704C21.3473 9.27892 21.3455 11.1999 22.4686 12.6065C23.5683 13.9838 25.442 14.4073 26.9888 13.7001Z" fill="#FAFAFA"/>
        <path d="M15.2795 16.0433C14.9278 16.3241 14.8395 16.8745 15.1436 17.2555L16.3369 18.75C16.6177 19.1017 17.1682 19.1901 17.5491 18.8859C17.9301 18.5817 17.9891 18.0547 17.685 17.6737L16.4916 16.1792C16.1582 15.8216 15.6311 15.7625 15.2795 16.0433Z" fill="#FAFAFA"/>
    </g>
    <defs>
        <clipPath id="clip0_155_460">
            <rect width="24" height="24" fill="white" transform="translate(0.27002 14.9749) rotate(-38.6056)"/>
        </clipPath>
    </defs>
</svg>
